<?xml version="1.0" encoding="UTF-8"?>
<svg width="242px" height="240px" viewBox="0 0 242 240" version="1.1" xmlns="http://www.w3.org/2000/svg" xmlns:xlink="http://www.w3.org/1999/xlink">
    <!-- Generator: Sketch 47 (45396) - http://www.bohemiancoding.com/sketch -->
    <title>icon</title>
    <desc>Created with Sketch.</desc>
    <defs></defs>
    <g id="Page-1" stroke="none" stroke-width="1" fill="none" fill-rule="evenodd">
        <g id="icon" fill-rule="nonzero">
            <path d="M206.795,35.203 C184.075,12.4 153.8,0 121.6,0 L121.251,0 C54.921,0 0.8,53.3 0.6,119.7 C0.433,186.2 54.4,240 120.9,240 L121.248,240 C187.575,240 241.686,186.484 241.873,120.156 C241.978,87.9 229.5,58.1 206.8,35.203 L206.795,35.203 Z M121.259,223 L120.96,223 C64.059,222 17.898,176.606 18.06,119.707 C18.222,63 64.5,17 121.2,17 L121.5,17 C149.063,17 174.9,27.8 194.4,47.387 C213.835,66.887 224.5,92.687 224.4,120.287 C224.287,177 178,223 121.3,223 L121.259,223 Z" id="Shape" fill="#25282A"></path>
            <path d="M147.527,67.575 L153.55,50.932 C153.901,49.963 153.399,48.893 152.431,48.544 L139.54,43.879 C138.569,43.528 137.5,44.03 137.15,44.998 L130.97,62.073 C130.619,63.042 129.51,63.633 128.49,63.504 C126.167,63.21 123.81,63 121.428,63 C121.369,63 121.309,63 121.249,63 C105.468,63 90.679,68.738 79.594,79.392 C68.303,90.241 62.06,104.77 62.016,120.592 C61.971,136.392 68.116,151.492 79.216,162.78 C83.21,166.88 87.716,170.28 92.516,172.997 C93.412,173.497 93.916,174.697 93.616,175.697 L88.603,190.961 C88.282,191.961 88.803,192.961 89.803,193.313 L102.827,197.596 C103.805,197.896 104.858,197.381 105.181,196.403 L110.097,181.443 C110.417,180.464 111.5,179.519 112.519,179.677 C115.364,180.077 118.219,180.077 121.219,180.041 C121.279,180.041 121.319,180.041 121.419,180.041 C138.402,180.041 154.189,173.583 165.062,161.82 C165.761,161.063 165.673,160.034 164.897,159.36 L154.301,150.228 C153.524,149.552 152.352,149.73 151.642,150.428 C143.95,158.4 133.3,163 121.3,163 C121.254,163 121.207,163 121.161,163 C110.101,163 99.688,158.416 91.843,150.453 C83.995,142.49 79.69,131.85 79.722,120.719 C79.753,109.756 84.063,99.274 91.857,91.783 C99.627,84.317 110.055,80 121.238,80 C121.282,80 121.338,80 121.338,80 C132.004,80 141.938,84.8 149.438,93.026 C154.343,98.426 157.838,105.526 159.538,112.626 C159.782,113.627 159.106,114.953 158.076,114.953 L115.267,114.953 C113.779,114.953 114.089,114.432 113.371,116.591 L108.709,130.391 C108.196,132.082 108.395,132.491 109.409,132.452 L176.617,132.303 C177.647,132.303 178.486,131.361 178.487,130.33 L178.508,123.417 C178.552,108.065 172.732,92.862 162.539,81.564 C158.363,76.935 153.618,73.126 148.466,70.199 C147.635,69.7 147.2,68.5 147.5,67.575 L147.527,67.575 Z" id="Shape" fill="#01AF66"></path>
        </g>
    </g>
</svg>